<?xml version="1.0" encoding="utf-8"?>
<!-- Generator: Adobe Illustrator 16.0.0, SVG Export Plug-In . SVG Version: 6.00 Build 0)  -->
<!DOCTYPE svg PUBLIC "-//W3C//DTD SVG 1.1//EN" "http://www.w3.org/Graphics/SVG/1.1/DTD/svg11.dtd">
<svg version="1.1" id="Capa_4" xmlns="http://www.w3.org/2000/svg" xmlns:xlink="http://www.w3.org/1999/xlink" x="0px" y="0px"
	 width="30px" height="28px" viewBox="0 0 30 28" enable-background="new 0 0 30 28" xml:space="preserve">
<path fill="#66B7DD" d="M26.032,9.92l-0.82-5.555l-5.477,1.574c-0.396,0.113-0.623,0.523-0.51,0.918
	c0.113,0.393,0.521,0.623,0.92,0.508l2.723-0.781l-4.977,7.791l-3.129-4.125l-3.857,8.195l-2.688-2.514l-3.021,5.346V4.461H3.96
	v19.174h20.719v-1.236H6.269l2.314-4.096l2.797,2.619l3.682-7.82l2.934,3.865l6.154-9.633l0.414,2.803
	c0.055,0.367,0.373,0.633,0.732,0.633c0.037,0,0.074-0.002,0.109-0.006C25.812,10.703,26.091,10.324,26.032,9.92"/>
</svg>
