<?xml version="1.0" encoding="utf-8"?>
<!-- Generator: Adobe Illustrator 16.0.0, SVG Export Plug-In . SVG Version: 6.00 Build 0)  -->
<!DOCTYPE svg PUBLIC "-//W3C//DTD SVG 1.1//EN" "http://www.w3.org/Graphics/SVG/1.1/DTD/svg11.dtd">
<svg version="1.1" id="Capa_4" xmlns="http://www.w3.org/2000/svg" xmlns:xlink="http://www.w3.org/1999/xlink" x="0px" y="0px"
	 width="30px" height="28px" viewBox="0 0 30 28" enable-background="new 0 0 30 28" xml:space="preserve">
<path fill="#FCAF70" d="M14.999,3.282c-5.92,0-10.717,4.797-10.717,10.717c0,5.922,4.797,10.719,10.717,10.719
	c6.113,0,10.719-4.605,10.719-10.719C25.718,8.079,20.921,3.282,14.999,3.282z M20.315,14.958c-0.52-0.303-1.014-0.463-1.479-0.463
	c-0.77,0-1.342,0.41-1.727,0.738c-0.168,0.107-0.383,0.273-0.467,0.273c0,0-0.029,0-0.053-0.055
	c-0.275-0.326-0.055-0.738,0.494-1.561c0.41-0.602,0.877-1.287,0.877-2.002c0-0.41-0.139-0.928-0.305-1.508
	c-0.191-0.631-0.52-1.811-0.244-2c0.137-0.107,0.244-0.139,0.381-0.139c0.578,0,1.287,0.656,1.615,0.99
	c0.137,0.107,0.328,0.328,0.549,0.576c0.959,1.068,1.727,1.865,2.438,1.891h0.053c0.93,0,1.479-0.656,1.752-1.205
	c0.244,0.467,0.549,1.479,0.549,3.646c0,2.139-0.52,3.426-0.768,3.945c-0.33-0.109-0.854-0.246-1.205-0.246
	c-0.137,0-0.244,0.029-0.328,0.055c-0.357,0.107-0.604,0.328-0.852,0.52c-0.137,0.105-0.357,0.273-0.439,0.273l-0.055-0.029
	c-0.221-0.168-0.166-0.74-0.107-1.264C21.083,16.55,21.196,15.507,20.315,14.958z M10.562,17.671
	c0.029,1.012-0.029,1.369-0.467,1.453h-0.027c-0.633,0-1.615-1.918-1.865-2.574c-0.055-0.191,0.055-0.656,0.137-1.014
	c0.166-0.684,0.328-1.398-0.107-1.836c-0.137-0.137-0.328-0.219-0.549-0.219c-0.381,0-0.852,0.189-1.369,0.439
	c-0.41,0.166-0.906,0.357-1.15,0.357c-0.055-1.125,0.52-3.592,1.18-4.385C6.397,9.81,6.532,9.81,6.616,9.81
	c0.465,0,1.15,0.328,1.424,0.441c0.244,0.107,0.412,0.328,0.578,0.602c0.221,0.328,0.465,0.715,0.988,0.877
	c0.303,0.107,0.77,0.029,1.262-0.084c0.357-0.084,0.77-0.166,1.127-0.166c0.221,0,0.41,0.029,0.578,0.082
	c0.053,0.029,0.244,0.246,0.41,0.877c0.244,0.93,0.275,1.947,0.107,2.221c-0.166,0.246-0.576,0.441-0.988,0.633
	c-0.52,0.219-1.012,0.439-1.316,0.875C10.532,16.55,10.532,17.097,10.562,17.671z M14.999,23.896c-5.094,0-9.297-3.871-9.836-8.824
	c0.383,0,0.9-0.189,1.449-0.412c0.41-0.164,0.852-0.326,1.066-0.326c0.053,0.191-0.055,0.738-0.137,1.041
	c-0.139,0.52-0.244,1.043-0.109,1.455c0,0.029,1.182,3.121,2.635,3.121c0.082,0,0.137-0.029,0.219-0.029
	c1.205-0.244,1.15-1.477,1.127-2.299c-0.031-0.383-0.031-0.854,0.082-1.014c0.166-0.244,0.578-0.441,0.959-0.602
	c0.52-0.244,1.066-0.465,1.342-0.959c0.41-0.686,0.166-2.359-0.137-3.236c-0.221-0.602-0.465-0.93-0.793-1.066
	c-0.275-0.082-0.549-0.137-0.875-0.137c-0.441,0-0.906,0.082-1.287,0.166c-0.305,0.055-0.551,0.107-0.74,0.107
	c-0.055,0-0.107,0-0.107,0c-0.221-0.082-0.357-0.244-0.549-0.547c-0.191-0.305-0.439-0.686-0.93-0.906
	C7.831,9.208,7.175,8.935,6.597,8.935c-0.029,0-0.053,0-0.078,0c1.732-2.889,4.889-4.826,8.492-4.826
	c3.771,0,7.061,2.131,8.73,5.246l-0.07,0.266c0,0.029-0.303,1.262-1.203,1.262h-0.029c-0.412-0.029-1.398-1.096-1.865-1.615
	c-0.244-0.244-0.439-0.465-0.602-0.631c-0.439-0.41-1.287-1.203-2.164-1.203c-0.326,0-0.629,0.107-0.875,0.303
	c-0.715,0.52-0.381,1.729-0.053,2.877c0.137,0.465,0.273,0.99,0.273,1.264c0,0.465-0.357,1.012-0.715,1.537
	c-0.518,0.768-1.15,1.727-0.441,2.574c0.168,0.221,0.412,0.326,0.656,0.326c0.328,0,0.631-0.219,0.93-0.439
	c0.357-0.273,0.77-0.549,1.264-0.549c0.328,0,0.656,0.139,1.043,0.357c0.41,0.244,0.381,0.795,0.303,1.645
	c-0.084,0.738-0.137,1.537,0.41,1.973c0.168,0.137,0.357,0.221,0.578,0.221c0.381,0,0.686-0.246,0.959-0.465
	c0.191-0.166,0.383-0.328,0.578-0.383c0,0,0.029,0,0.082,0c0.244,0,0.639,0.104,0.936,0.191
	C22.214,21.728,19.276,23.896,14.999,23.896z"/>
</svg>
