<?xml version="1.0" encoding="utf-8"?>
<!-- Generator: Adobe Illustrator 16.0.0, SVG Export Plug-In . SVG Version: 6.00 Build 0)  -->
<!DOCTYPE svg PUBLIC "-//W3C//DTD SVG 1.1//EN" "http://www.w3.org/Graphics/SVG/1.1/DTD/svg11.dtd">
<svg version="1.1" id="Capa_4" xmlns="http://www.w3.org/2000/svg" xmlns:xlink="http://www.w3.org/1999/xlink" x="0px" y="0px"
	 width="30px" height="28px" viewBox="0 0 30 28" enable-background="new 0 0 30 28" xml:space="preserve">
<path fill="#11998C" d="M25.114,12.184c0.059,0.369,0.09,0.744,0.09,1.127c0,2.85-1.563,5.488-4.201,7.111v1.791
	c0,0.582-0.422,1.055-0.941,1.055h-1.748c-0.518,0-0.939-0.473-0.939-1.055v-0.428c-1.402,0.252-2.766,0.23-4.107-0.043v0.42
	c0,0.582-0.424,1.057-0.939,1.057h-1.748c-0.52,0-0.941-0.475-0.941-1.057v-1.916c-0.83-0.551-1.549-1.207-2.143-1.955H5.462
	c-0.783,0-1.422-0.639-1.422-1.422v-4.1c0-0.783,0.639-1.422,1.422-1.422h0.516c0.25-0.965,0.684-1.873,1.281-2.707L6.048,7.016
	L6.417,6.74c0.721-0.541,1.787-0.545,2.766-0.035c0.861-0.645,1.85-1.15,2.904-1.496c0.662-0.256,2.035-0.477,3.408-0.477
	s2.09,0.076,3.197,0.424c2.873,0.9,5.07,2.939,6.012,5.436c0.111-0.045,0.234-0.074,0.365-0.074c0.494,0,0.891,0.375,0.891,0.834
	C25.96,11.797,25.587,12.162,25.114,12.184z M18.179,5.957c-0.395-0.09-1.791-0.307-2.684-0.307c-0.896,0-2.291,0.221-2.887,0.346
	c-1.143,0.35-2.211,0.902-3.102,1.617L9.251,7.822L8.974,7.646C8.435,7.303,7.845,7.174,7.39,7.281l1.023,1.367L8.196,8.924
	c-0.707,0.896-1.18,1.898-1.41,2.973L6.71,12.262H5.462c-0.277,0-0.504,0.225-0.504,0.504v4.098c0,0.279,0.227,0.506,0.504,0.506
	h2.486l0.141,0.184c0.607,0.807,1.371,1.504,2.281,2.066l0.277,0.172l-0.082,0.383v1.988c0,0.086,0.035,0.137,0.049,0.141
	l1.719-0.004c-0.012-0.004,0.023-0.055,0.023-0.137V20.57l0.578,0.148c1.553,0.404,3.156,0.441,4.799,0.059l0.563-0.131v1.566
	c0,0.086,0.037,0.131,0.051,0.141l1.701-0.006c0.018-0.018,0.041-0.063,0.041-0.135l-0.023-2.301l0.244-0.145
	c2.49-1.439,3.977-3.854,3.977-6.457C24.29,9.969,21.79,6.982,18.179,5.957z M19.296,8.227c-0.072,0-0.148-0.018-0.217-0.055
	c-1.084-0.584-2.336-0.896-3.615-0.896c-1.217,0-2.414,0.281-3.459,0.811c-0.225,0.117-0.5,0.029-0.615-0.201
	c-0.113-0.225-0.029-0.5,0.201-0.617c0.545-0.275,1.125-0.49,1.729-0.645c2.133-0.607,4.184-0.049,4.162-0.031
	c0.717,0.172,1.398,0.424,2.035,0.77c0.221,0.123,0.305,0.4,0.186,0.621C19.616,8.143,19.458,8.227,19.296,8.227z"/>
</svg>
