<?xml version="1.0" encoding="utf-8"?>
<!-- Generator: Adobe Illustrator 16.0.0, SVG Export Plug-In . SVG Version: 6.00 Build 0)  -->
<!DOCTYPE svg PUBLIC "-//W3C//DTD SVG 1.1//EN" "http://www.w3.org/Graphics/SVG/1.1/DTD/svg11.dtd">
<svg version="1.1" id="Capa_4" xmlns="http://www.w3.org/2000/svg" xmlns:xlink="http://www.w3.org/1999/xlink" x="0px" y="0px"
	 width="30px" height="28px" viewBox="0 0 30 28" enable-background="new 0 0 30 28" xml:space="preserve">
<g transform="translate(-601.000000, -899.000000)">
	<g transform="translate(600.000000, 899.000000)">
		<path fill="#00557C" d="M8.312,16.135c-1.176,0-2.137,0.959-2.137,2.137s0.961,2.137,2.137,2.137c1.178,0,2.135-0.959,2.135-2.137
			S9.489,16.135,8.312,16.135 M8.312,21.262c-1.648,0-2.99-1.342-2.99-2.99s1.342-2.99,2.99-2.99s2.99,1.342,2.99,2.99
			S9.96,21.262,8.312,21.262"/>
		<path fill="#00557C" d="M9.165,18.271c0,0.473-0.383,0.855-0.854,0.855s-0.855-0.383-0.855-0.855s0.385-0.855,0.855-0.855
			S9.165,17.799,9.165,18.271"/>
		<path fill="#00557C" d="M23.69,16.135c-1.176,0-2.135,0.959-2.135,2.137s0.959,2.137,2.135,2.137c1.18,0,2.139-0.959,2.139-2.137
			S24.87,16.135,23.69,16.135 M23.69,21.262c-1.646,0-2.99-1.342-2.99-2.99s1.344-2.99,2.99-2.99c1.65,0,2.99,1.342,2.99,2.99
			S25.341,21.262,23.69,21.262"/>
		<path fill="#00557C" d="M24.546,18.271c0,0.473-0.383,0.855-0.855,0.855c-0.471,0-0.854-0.383-0.854-0.855
			s0.383-0.855,0.854-0.855C24.163,17.416,24.546,17.799,24.546,18.271"/>
		<path fill="#00557C" d="M26.651,17.844h0.439c0.48,0,0.871-0.391,0.871-0.871v-3.607c0-0.121-0.098-0.221-0.219-0.221h-1.762
			c-1.559,0-3.037-0.824-3.855-2.154l-1.477-2.396c-0.377-0.619-1.064-1.004-1.793-1.004h-8.699c-0.729,0-1.414,0.385-1.795,1.004
			l-2.125,3.459c-0.414,0.672-1.16,1.092-1.953,1.092c-0.082,0-0.141,0.023-0.184,0.068c-0.039,0.039-0.063,0.096-0.063,0.156
			c0,0.941,0.002,2.701,0.002,3.836c0,0.352,0.287,0.639,0.639,0.639h0.674c0.207-1.447,1.455-2.563,2.959-2.563
			s2.754,1.115,2.961,2.563h9.459c0.207-1.447,1.455-2.563,2.959-2.563S26.442,16.396,26.651,17.844 M27.091,18.697h-1.262v-0.426
			c0-1.178-0.959-2.137-2.139-2.137c-1.178,0-2.135,0.959-2.135,2.137v0.426H10.446v-0.426c0-1.178-0.957-2.137-2.135-2.137
			c-1.176,0-2.137,0.959-2.137,2.137v0.426H4.679c-0.822,0-1.494-0.668-1.494-1.492c0-1.133,0-2.893-0.002-3.836
			c0-0.289,0.111-0.559,0.314-0.76c0.205-0.205,0.479-0.318,0.77-0.318c0.514,0,0.984-0.262,1.242-0.686l2.123-3.457
			c0.535-0.871,1.502-1.41,2.525-1.41h8.699c1.021,0,1.986,0.539,2.523,1.406l1.475,2.396c0.664,1.08,1.861,1.75,3.127,1.75h1.762
			c0.592,0,1.074,0.482,1.074,1.074v3.607C28.817,17.924,28.042,18.697,27.091,18.697"/>
		<path fill="#00557C" d="M10.019,11.01h12.119c-0.002-0.008-0.008-0.014-0.012-0.02l-1.039-1.691H10.019V11.01z M24.011,11.861
			H9.946c-0.43,0-0.781-0.348-0.781-0.779V9.225c0-0.43,0.352-0.779,0.781-0.779h11.617l1.291,2.096
			c0.121,0.201,0.277,0.395,0.471,0.602L24.011,11.861z"/>
		<path fill="#00557C" d="M15.575,11.438h0.854V8.873h-0.854V11.438z"/>
	</g>
</g>
</svg>
