<?xml version="1.0" encoding="utf-8"?>
<!-- Generator: Adobe Illustrator 16.0.0, SVG Export Plug-In . SVG Version: 6.00 Build 0)  -->
<!DOCTYPE svg PUBLIC "-//W3C//DTD SVG 1.1//EN" "http://www.w3.org/Graphics/SVG/1.1/DTD/svg11.dtd">
<svg version="1.1" id="Capa_4" xmlns="http://www.w3.org/2000/svg" xmlns:xlink="http://www.w3.org/1999/xlink" x="0px" y="0px"
	 width="30px" height="28px" viewBox="0 0 30 28" enable-background="new 0 0 30 28" xml:space="preserve">
<g>
	<path fill="#94408C" d="M14.999,24.455C9.235,24.455,4.546,19.764,4.546,14S9.235,3.545,14.999,3.545
		c5.766,0,10.455,4.691,10.455,10.455S20.765,24.455,14.999,24.455z M14.999,4.416c-5.283,0-9.582,4.299-9.582,9.584
		s4.299,9.584,9.582,9.584c5.285,0,9.584-4.299,9.584-9.584S20.284,4.416,14.999,4.416z"/>
	<path fill="#94408C" d="M14.999,24.455c-3.467,0-6.285-4.691-6.285-10.455s2.818-10.455,6.285-10.455
		c3.469,0,6.287,4.691,6.287,10.455S18.468,24.455,14.999,24.455z M14.999,4.416c-2.984,0-5.414,4.299-5.414,9.584
		s2.43,9.584,5.414,9.584c2.986,0,5.416-4.299,5.416-9.584S17.985,4.416,14.999,4.416z"/>
	<path fill="#94408C" d="M15,24.455c-0.24,0-0.436-0.195-0.436-0.436V3.98c0-0.24,0.195-0.436,0.436-0.436
		c0.242,0,0.436,0.195,0.436,0.436V24.02C15.436,24.26,15.242,24.455,15,24.455z"/>
	<path fill="#94408C" d="M25.019,14.436H4.981c-0.24,0-0.436-0.195-0.436-0.436s0.195-0.436,0.436-0.436h20.037
		c0.242,0,0.436,0.195,0.436,0.436S25.261,14.436,25.019,14.436z"/>
	<g>
		<path fill="#94408C" d="M23.543,9.58H6.453c-0.24,0-0.434-0.195-0.434-0.436c0-0.242,0.193-0.436,0.434-0.436h17.09
			c0.242,0,0.438,0.193,0.438,0.436C23.98,9.385,23.785,9.58,23.543,9.58z"/>
		<path fill="#94408C" d="M23.543,19.291H6.453c-0.24,0-0.434-0.193-0.434-0.436c0-0.24,0.193-0.436,0.434-0.436h17.09
			c0.242,0,0.438,0.195,0.438,0.436C23.98,19.098,23.785,19.291,23.543,19.291z"/>
	</g>
</g>
</svg>
