<?xml version="1.0" encoding="utf-8"?>
<!-- Generator: Adobe Illustrator 16.0.0, SVG Export Plug-In . SVG Version: 6.00 Build 0)  -->
<!DOCTYPE svg PUBLIC "-//W3C//DTD SVG 1.1//EN" "http://www.w3.org/Graphics/SVG/1.1/DTD/svg11.dtd">
<svg version="1.1" id="Capa_4" xmlns="http://www.w3.org/2000/svg" xmlns:xlink="http://www.w3.org/1999/xlink" x="0px" y="0px"
	 width="30px" height="28px" viewBox="0 0 30 28" enable-background="new 0 0 30 28" xml:space="preserve">
<g>
	<path fill="#5151B7" d="M25.594,12.858L15.238,4.808c-0.141-0.111-0.336-0.111-0.479,0L4.408,12.858
		c-0.172,0.133-0.203,0.379-0.07,0.549c0.135,0.172,0.379,0.201,0.549,0.068l2.023-1.57v10.979c0,0.217,0.174,0.393,0.389,0.393
		h4.941h5.52h4.941c0.215,0,0.389-0.176,0.389-0.393V11.905l2.023,1.57c0.172,0.133,0.416,0.104,0.549-0.068
		C25.793,13.237,25.764,12.991,25.594,12.858z M16.979,22.493h-3.957v-4.348c0-1.09,0.887-1.977,1.979-1.977
		s1.979,0.887,1.979,1.977V22.493z M22.309,22.493H17.76v-4.348c0-1.521-1.238-2.76-2.76-2.76s-2.76,1.238-2.76,2.76v4.348H7.691
		V11.296L15,5.61l7.309,5.686V22.493z"/>
	<path fill="#5151B7" d="M13.425,11.038c0,0.869,0.705,1.576,1.574,1.576c0.867,0,1.576-0.707,1.576-1.576
		c0-0.867-0.709-1.576-1.576-1.576C14.13,9.462,13.425,10.171,13.425,11.038z M15.794,11.038c0,0.438-0.357,0.795-0.795,0.795
		c-0.439,0-0.793-0.357-0.793-0.795s0.354-0.793,0.793-0.793C15.437,10.245,15.794,10.601,15.794,11.038z"/>
</g>
</svg>
