<?xml version="1.0" encoding="utf-8"?>
<!-- Generator: Adobe Illustrator 16.0.0, SVG Export Plug-In . SVG Version: 6.00 Build 0)  -->
<!DOCTYPE svg PUBLIC "-//W3C//DTD SVG 1.1//EN" "http://www.w3.org/Graphics/SVG/1.1/DTD/svg11.dtd">
<svg version="1.1" id="Capa_4" xmlns="http://www.w3.org/2000/svg" xmlns:xlink="http://www.w3.org/1999/xlink" x="0px" y="0px"
	 width="30px" height="28px" viewBox="0 0 30 28" enable-background="new 0 0 30 28" xml:space="preserve">
<path fill="#ED5F5F" d="M25.239,9.919c-0.266,0-0.508,0.064-0.727,0.16c-0.334-0.42-0.844-0.691-1.426-0.693
	c-0.299,0-0.576,0.08-0.811,0.197l-0.766,0.451c-0.334-0.395-0.83-0.648-1.387-0.648c-0.299,0-0.574,0.08-0.813,0.197l-2.75,1.676
	c-0.67-0.197-3.568-1.014-4.127-1.154c-0.279-0.072-0.523-0.127-0.725-0.17c-0.102-0.021-0.189-0.035-0.268-0.049
	c-0.082-0.012-0.148-0.021-0.223-0.021c-0.059,0-0.109,0.006-0.166,0.012c-0.207,0.029-0.506,0.094-0.855,0.174
	c-0.715,0.168-1.629,0.41-2.133,0.547V9.849c0-0.59-0.484-1.07-1.076-1.07H4.026c-0.592,0-1.078,0.48-1.078,1.07v8.303
	c0,0.588,0.486,1.07,1.078,1.07h2.961c0.594,0,1.078-0.482,1.078-1.07v-0.646c0.641,0.139,2.057,0.443,3.555,0.752
	c1.012,0.205,2.057,0.41,2.92,0.566c0.432,0.078,0.82,0.145,1.135,0.189c0.32,0.047,0.559,0.074,0.738,0.074
	c0.141,0,0.273-0.025,0.42-0.066c0.27-0.072,0.574-0.203,0.924-0.371c1.217-0.59,2.967-1.697,4.617-2.791
	c1.645-1.092,3.186-2.172,3.939-2.689c0.473-0.324,0.738-0.871,0.738-1.449C27.052,10.726,26.241,9.919,25.239,9.919z M7.259,18.151
	c0,0.145-0.123,0.268-0.271,0.268H4.026c-0.148,0-0.271-0.123-0.271-0.268V9.849c0-0.145,0.123-0.268,0.271-0.268h2.961
	c0.148,0,0.271,0.123,0.271,0.268V18.151z M25.856,12.509c-0.928,0.635-3.004,2.094-5.016,3.393
	c-1.002,0.648-1.99,1.256-2.803,1.697c-0.402,0.221-0.764,0.398-1.053,0.518c-0.145,0.061-0.271,0.105-0.369,0.131
	c-0.102,0.029-0.176,0.039-0.203,0.037c-0.088,0.002-0.32-0.023-0.619-0.066c-1.063-0.154-3.049-0.549-4.76-0.902
	c-0.854-0.178-1.643-0.346-2.219-0.469c-0.334-0.072-0.59-0.127-0.75-0.162v-5.254c0.078-0.023,0.182-0.051,0.307-0.084
	c0.426-0.115,1.076-0.287,1.658-0.43c0.291-0.07,0.566-0.137,0.783-0.18c0.109-0.023,0.205-0.041,0.279-0.051
	c0.07-0.016,0.125-0.018,0.127-0.018c0,0,0.043,0.002,0.102,0.012c0.223,0.033,0.68,0.139,1.236,0.283
	c1.676,0.436,4.322,1.225,5.391,1.547c0.371,0.111,0.705,0.279,0.924,0.482c0.111,0.1,0.195,0.207,0.25,0.326
	c0.057,0.117,0.088,0.242,0.088,0.398c0,0.316-0.127,0.598-0.336,0.803c-0.207,0.207-0.484,0.332-0.799,0.336l-1.043-0.104
	L13.476,14.3c-0.221-0.027-0.424,0.127-0.453,0.348c-0.029,0.219,0.129,0.42,0.35,0.449l3.57,0.455l1.104,0.107h0.02
	c1.078,0,1.951-0.869,1.953-1.941c0-0.268-0.061-0.521-0.166-0.744c-0.16-0.334-0.418-0.594-0.711-0.791
	c-0.291-0.197-0.621-0.34-0.957-0.439c-0.162-0.049-0.359-0.109-0.584-0.176l2.082-1.268c0.143-0.07,0.289-0.109,0.441-0.109
	c0.262-0.002,0.496,0.1,0.676,0.262l-1.084,0.639c-0.191,0.115-0.254,0.359-0.141,0.551c0.115,0.191,0.361,0.254,0.553,0.141
	l2.514-1.482c0.145-0.07,0.291-0.109,0.445-0.109c0.279-0.002,0.529,0.115,0.711,0.297l-2.93,1.727
	c-0.191,0.113-0.254,0.359-0.139,0.551c0.113,0.191,0.363,0.254,0.555,0.141l3.514-2.074c0.143-0.066,0.289-0.107,0.441-0.109
	c0.279,0.002,0.527,0.113,0.711,0.293c0.182,0.182,0.293,0.43,0.293,0.705C26.245,12.058,26.089,12.351,25.856,12.509z"/>
</svg>
