<?xml version="1.0" encoding="utf-8"?>
<!-- Generator: Adobe Illustrator 16.0.0, SVG Export Plug-In . SVG Version: 6.00 Build 0)  -->
<!DOCTYPE svg PUBLIC "-//W3C//DTD SVG 1.1//EN" "http://www.w3.org/Graphics/SVG/1.1/DTD/svg11.dtd">
<svg version="1.1" id="Capa_4" xmlns="http://www.w3.org/2000/svg" xmlns:xlink="http://www.w3.org/1999/xlink" x="0px" y="0px"
	 width="30px" height="28px" viewBox="0 0 30 28" enable-background="new 0 0 30 28" xml:space="preserve">
<g>
	<path fill="#AF1515" d="M27.769,6.85H4.636C4.448,6.85,4.3,7.002,4.3,7.188v0.844H3.454c-0.188,0-0.338,0.15-0.338,0.338V9.25
		H2.233c-0.188,0-0.338,0.152-0.338,0.338v11.225c0,0.188,0.152,0.338,0.338,0.338h23.133c0.188,0,0.338-0.152,0.338-0.338v-0.881
		h0.879c0.189,0,0.34-0.152,0.34-0.338V18.75h0.844c0.188,0,0.338-0.152,0.338-0.34V7.188C28.106,7.002,27.954,6.85,27.769,6.85z
		 M25.028,20.477H2.571V9.926h22.457V20.477z M26.247,19.256h-0.543V9.59c0-0.188-0.152-0.34-0.338-0.34H3.792V8.707h22.455V19.256z
		 M27.431,18.074h-0.508V8.369c0-0.188-0.15-0.338-0.338-0.338H4.974V7.525h22.457V18.074L27.431,18.074z"/>
	<g>
		<g>
			<path fill="#AF1515" d="M14.701,18.404c-1.426-0.109-1.684-0.875-1.684-1.758v-0.18h1.186c0,0.473,0.041,0.92,0.498,1.027v-1.73
				l-0.43-0.156c-0.832-0.299-1.176-0.875-1.176-1.646c0-1.047,0.594-1.639,1.605-1.752v-0.59h0.547v0.59
				c1.264,0.105,1.59,0.861,1.59,1.623v0.117h-1.186c-0.01-0.436-0.111-0.734-0.404-0.83v1.621l0.68,0.275
				c0.635,0.268,1.055,0.602,1.055,1.553c0,1.234-0.602,1.76-1.734,1.836v0.748h-0.547V18.404L14.701,18.404z M14.701,13.121
				c-0.26,0.076-0.424,0.293-0.424,0.65c0,0.311,0.131,0.553,0.424,0.723V13.121z M15.248,17.494c0.354-0.076,0.5-0.367,0.5-0.684
				c0-0.428-0.174-0.662-0.5-0.834V17.494z"/>
		</g>
	</g>
</g>
</svg>
