<?xml version="1.0" encoding="utf-8"?>
<!-- Generator: Adobe Illustrator 16.0.0, SVG Export Plug-In . SVG Version: 6.00 Build 0)  -->
<!DOCTYPE svg PUBLIC "-//W3C//DTD SVG 1.1//EN" "http://www.w3.org/Graphics/SVG/1.1/DTD/svg11.dtd">
<svg version="1.1" id="Capa_4" xmlns="http://www.w3.org/2000/svg" xmlns:xlink="http://www.w3.org/1999/xlink" x="0px" y="0px"
	 width="30px" height="28px" viewBox="0 0 30 28" enable-background="new 0 0 30 28" xml:space="preserve">
<g>
	<g>
		<g>
			<line fill="none" stroke="#DD8EDA" stroke-width="0.75" stroke-miterlimit="10" x1="5.643" y1="13.988" x2="5.643" y2="16.148"/>
			
				<line fill="none" stroke="#DD8EDA" stroke-width="0.75" stroke-miterlimit="10" x1="10.969" y1="13.988" x2="10.969" y2="16.148"/>
			<line fill="none" stroke="#DD8EDA" stroke-width="0.75" stroke-miterlimit="10" x1="5.643" y1="15.814" x2="5.643" y2="17.973"/>
			
				<line fill="none" stroke="#DD8EDA" stroke-width="0.75" stroke-miterlimit="10" x1="10.969" y1="15.814" x2="10.969" y2="17.973"/>
			<line fill="none" stroke="#DD8EDA" stroke-width="0.75" stroke-miterlimit="10" x1="5.643" y1="17.641" x2="5.643" y2="19.799"/>
			
				<line fill="none" stroke="#DD8EDA" stroke-width="0.75" stroke-miterlimit="10" x1="10.969" y1="17.641" x2="10.969" y2="19.799"/>
			<g>
				
					<ellipse fill="none" stroke="#DD8EDA" stroke-width="0.75" stroke-miterlimit="10" cx="8.305" cy="13.989" rx="2.664" ry="1.493"/>
				<path fill="none" stroke="#DD8EDA" stroke-width="0.75" stroke-miterlimit="10" d="M10.969,15.814
					c0,0.824-1.191,1.492-2.664,1.492c-1.471,0-2.662-0.668-2.662-1.492"/>
				<path fill="none" stroke="#DD8EDA" stroke-width="0.75" stroke-miterlimit="10" d="M10.969,17.641
					c0,0.824-1.191,1.492-2.664,1.492c-1.471,0-2.662-0.668-2.662-1.492"/>
				<path fill="none" stroke="#DD8EDA" stroke-width="0.75" stroke-miterlimit="10" d="M10.969,19.467
					c0,0.824-1.191,1.494-2.664,1.494c-1.471,0-2.662-0.67-2.662-1.494"/>
				<path fill="none" stroke="#DD8EDA" stroke-width="0.75" stroke-miterlimit="10" d="M10.969,21.293
					c0,0.824-1.191,1.492-2.664,1.492c-1.471,0-2.662-0.668-2.662-1.492"/>
			</g>
			<line fill="none" stroke="#DD8EDA" stroke-width="0.75" stroke-miterlimit="10" x1="5.643" y1="19.467" x2="5.643" y2="21.625"/>
			
				<line fill="none" stroke="#DD8EDA" stroke-width="0.75" stroke-miterlimit="10" x1="10.969" y1="19.467" x2="10.969" y2="21.625"/>
		</g>
		<g>
			
				<line fill="none" stroke="#DD8EDA" stroke-width="0.75" stroke-miterlimit="10" x1="12.336" y1="10.338" x2="12.336" y2="12.496"/>
			
				<line fill="none" stroke="#DD8EDA" stroke-width="0.75" stroke-miterlimit="10" x1="17.662" y1="10.338" x2="17.662" y2="12.496"/>
			
				<line fill="none" stroke="#DD8EDA" stroke-width="0.75" stroke-miterlimit="10" x1="12.336" y1="12.164" x2="12.336" y2="14.322"/>
			
				<line fill="none" stroke="#DD8EDA" stroke-width="0.75" stroke-miterlimit="10" x1="17.662" y1="12.164" x2="17.662" y2="14.322"/>
			
				<line fill="none" stroke="#DD8EDA" stroke-width="0.75" stroke-miterlimit="10" x1="12.336" y1="13.988" x2="12.336" y2="16.148"/>
			
				<line fill="none" stroke="#DD8EDA" stroke-width="0.75" stroke-miterlimit="10" x1="17.662" y1="13.988" x2="17.662" y2="16.148"/>
			
				<line fill="none" stroke="#DD8EDA" stroke-width="0.75" stroke-miterlimit="10" x1="12.336" y1="15.814" x2="12.336" y2="17.973"/>
			
				<line fill="none" stroke="#DD8EDA" stroke-width="0.75" stroke-miterlimit="10" x1="17.662" y1="15.814" x2="17.662" y2="17.973"/>
			
				<line fill="none" stroke="#DD8EDA" stroke-width="0.75" stroke-miterlimit="10" x1="12.336" y1="17.641" x2="12.336" y2="19.799"/>
			
				<line fill="none" stroke="#DD8EDA" stroke-width="0.75" stroke-miterlimit="10" x1="17.662" y1="17.641" x2="17.662" y2="19.799"/>
			<g>
				<ellipse fill="none" stroke="#DD8EDA" stroke-width="0.75" stroke-miterlimit="10" cx="15" cy="10.337" rx="2.662" ry="1.493"/>
				<path fill="none" stroke="#DD8EDA" stroke-width="0.75" stroke-miterlimit="10" d="M17.662,12.164
					c0,0.824-1.191,1.492-2.662,1.492c-1.473,0-2.664-0.668-2.664-1.492"/>
				<path fill="none" stroke="#DD8EDA" stroke-width="0.75" stroke-miterlimit="10" d="M17.662,13.988
					c0,0.826-1.191,1.494-2.662,1.494c-1.473,0-2.664-0.668-2.664-1.494"/>
				<path fill="none" stroke="#DD8EDA" stroke-width="0.75" stroke-miterlimit="10" d="M17.662,15.814
					c0,0.824-1.191,1.492-2.662,1.492c-1.473,0-2.664-0.668-2.664-1.492"/>
				<path fill="none" stroke="#DD8EDA" stroke-width="0.75" stroke-miterlimit="10" d="M17.662,17.641
					c0,0.824-1.191,1.492-2.662,1.492c-1.473,0-2.664-0.668-2.664-1.492"/>
				<path fill="none" stroke="#DD8EDA" stroke-width="0.75" stroke-miterlimit="10" d="M17.662,19.467
					c0,0.824-1.191,1.494-2.662,1.494c-1.473,0-2.664-0.67-2.664-1.494"/>
				<path fill="none" stroke="#DD8EDA" stroke-width="0.75" stroke-miterlimit="10" d="M17.662,21.293
					c0,0.824-1.191,1.492-2.662,1.492c-1.473,0-2.664-0.668-2.664-1.492"/>
			</g>
			
				<line fill="none" stroke="#DD8EDA" stroke-width="0.75" stroke-miterlimit="10" x1="12.336" y1="19.467" x2="12.336" y2="21.625"/>
			
				<line fill="none" stroke="#DD8EDA" stroke-width="0.75" stroke-miterlimit="10" x1="17.662" y1="19.467" x2="17.662" y2="21.625"/>
		</g>
		<g>
			<line fill="none" stroke="#DD8EDA" stroke-width="0.75" stroke-miterlimit="10" x1="19.031" y1="6.709" x2="19.031" y2="8.867"/>
			
				<line fill="none" stroke="#DD8EDA" stroke-width="0.75" stroke-miterlimit="10" x1="19.031" y1="8.535" x2="19.031" y2="10.693"/>
			
				<line fill="none" stroke="#DD8EDA" stroke-width="0.75" stroke-miterlimit="10" x1="19.031" y1="10.361" x2="19.031" y2="12.52"/>
			
				<line fill="none" stroke="#DD8EDA" stroke-width="0.75" stroke-miterlimit="10" x1="19.031" y1="12.188" x2="19.031" y2="14.346"/>
			
				<line fill="none" stroke="#DD8EDA" stroke-width="0.75" stroke-miterlimit="10" x1="19.031" y1="14.012" x2="19.031" y2="16.172"/>
			
				<line fill="none" stroke="#DD8EDA" stroke-width="0.75" stroke-miterlimit="10" x1="19.031" y1="15.838" x2="19.031" y2="17.996"/>
			
				<line fill="none" stroke="#DD8EDA" stroke-width="0.75" stroke-miterlimit="10" x1="19.031" y1="17.365" x2="19.031" y2="19.523"/>
			
				<line fill="none" stroke="#DD8EDA" stroke-width="0.75" stroke-miterlimit="10" x1="19.031" y1="19.162" x2="19.031" y2="21.32"/>
			<g>
				
					<ellipse fill="none" stroke="#DD8EDA" stroke-width="0.75" stroke-miterlimit="10" cx="21.695" cy="6.709" rx="2.662" ry="1.494"/>
				<path fill="none" stroke="#DD8EDA" stroke-width="0.75" stroke-miterlimit="10" d="M24.357,8.535
					c0,0.824-1.191,1.492-2.662,1.492c-1.473,0-2.664-0.668-2.664-1.492"/>
				
					<line fill="none" stroke="#DD8EDA" stroke-width="0.75" stroke-miterlimit="10" x1="24.357" y1="6.709" x2="24.357" y2="8.867"/>
				<path fill="none" stroke="#DD8EDA" stroke-width="0.75" stroke-miterlimit="10" d="M24.357,10.361
					c0,0.824-1.191,1.492-2.662,1.492c-1.473,0-2.664-0.668-2.664-1.492"/>
				
					<line fill="none" stroke="#DD8EDA" stroke-width="0.75" stroke-miterlimit="10" x1="24.357" y1="8.535" x2="24.357" y2="10.693"/>
				<path fill="none" stroke="#DD8EDA" stroke-width="0.75" stroke-miterlimit="10" d="M24.357,12.188
					c0,0.822-1.191,1.492-2.662,1.492c-1.473,0-2.664-0.67-2.664-1.492"/>
				
					<line fill="none" stroke="#DD8EDA" stroke-width="0.75" stroke-miterlimit="10" x1="24.357" y1="10.361" x2="24.357" y2="12.52"/>
				<path fill="none" stroke="#DD8EDA" stroke-width="0.75" stroke-miterlimit="10" d="M24.357,14.012
					c0,0.824-1.191,1.494-2.662,1.494c-1.473,0-2.664-0.67-2.664-1.494"/>
				
					<line fill="none" stroke="#DD8EDA" stroke-width="0.75" stroke-miterlimit="10" x1="24.357" y1="12.188" x2="24.357" y2="14.346"/>
				<path fill="none" stroke="#DD8EDA" stroke-width="0.75" stroke-miterlimit="10" d="M24.357,15.838
					c0,0.824-1.191,1.492-2.662,1.492c-1.473,0-2.664-0.668-2.664-1.492"/>
				
					<line fill="none" stroke="#DD8EDA" stroke-width="0.75" stroke-miterlimit="10" x1="24.357" y1="14.012" x2="24.357" y2="16.172"/>
				<path fill="none" stroke="#DD8EDA" stroke-width="0.75" stroke-miterlimit="10" d="M24.357,17.664
					c0,0.824-1.191,1.492-2.662,1.492c-1.473,0-2.664-0.668-2.664-1.492"/>
				
					<line fill="none" stroke="#DD8EDA" stroke-width="0.75" stroke-miterlimit="10" x1="24.357" y1="15.838" x2="24.357" y2="17.996"/>
				<path fill="none" stroke="#DD8EDA" stroke-width="0.75" stroke-miterlimit="10" d="M24.357,19.496
					c0,0.822-1.191,1.492-2.662,1.492c-1.473,0-2.664-0.67-2.664-1.492"/>
				
					<line fill="none" stroke="#DD8EDA" stroke-width="0.75" stroke-miterlimit="10" x1="24.357" y1="17.365" x2="24.357" y2="19.523"/>
				<path fill="none" stroke="#DD8EDA" stroke-width="0.75" stroke-miterlimit="10" d="M24.357,21.293
					c0,0.824-1.191,1.492-2.662,1.492c-1.473,0-2.664-0.668-2.664-1.492"/>
				
					<line fill="none" stroke="#DD8EDA" stroke-width="0.75" stroke-miterlimit="10" x1="24.357" y1="19.162" x2="24.357" y2="21.32"/>
			</g>
		</g>
	</g>
</g>
</svg>
