<svg id="Capa_4" xmlns="http://www.w3.org/2000/svg" width="30" height="28" viewBox="0 0 30 28"><path fill="#FCAF70" d="M14.999 3.282c-5.92 0-10.717 4.797-10.717 10.717 0 5.922 4.797 10.719 10.717 10.719 6.113 0 10.719-4.605 10.719-10.719 0-5.92-4.797-10.717-10.719-10.717zm5.316 11.676c-.52-.303-1.014-.463-1.479-.463-.77 0-1.342.41-1.727.738-.168.107-.383.273-.467.273 0 0-.029 0-.053-.055-.275-.326-.055-.738.494-1.561.41-.602.877-1.287.877-2.002 0-.41-.139-.928-.305-1.508-.191-.631-.52-1.811-.244-2a.562.562 0 0 1 .381-.139c.578 0 1.287.656 1.615.99.137.107.328.328.549.576.959 1.068 1.727 1.865 2.438 1.891h.053c.93 0 1.479-.656 1.752-1.205.244.467.549 1.479.549 3.646 0 2.139-.52 3.426-.768 3.945-.33-.109-.854-.246-1.205-.246-.137 0-.244.029-.328.055-.357.107-.604.328-.852.52-.137.105-.357.273-.439.273l-.055-.029c-.221-.168-.166-.74-.107-1.264.089-.843.202-1.886-.679-2.435zm-9.753 2.713c.029 1.012-.029 1.369-.467 1.453h-.027c-.633 0-1.615-1.918-1.865-2.574-.055-.191.055-.656.137-1.014.166-.684.328-1.398-.107-1.836a.764.764 0 0 0-.549-.219c-.381 0-.852.189-1.369.439-.41.166-.906.357-1.15.357-.055-1.125.52-3.592 1.18-4.385.052-.082.187-.082.271-.082.465 0 1.15.328 1.424.441.244.107.412.328.578.602.221.328.465.715.988.877.303.107.77.029 1.262-.084.357-.084.77-.166 1.127-.166.221 0 .41.029.578.082.053.029.244.246.41.877.244.93.275 1.947.107 2.221-.166.246-.576.441-.988.633-.52.219-1.012.439-1.316.875-.254.382-.254.929-.224 1.503zm4.437 6.225c-5.094 0-9.297-3.871-9.836-8.824.383 0 .9-.189 1.449-.412.41-.164.852-.326 1.066-.326.053.191-.055.738-.137 1.041-.139.52-.244 1.043-.109 1.455 0 .029 1.182 3.121 2.635 3.121.082 0 .137-.029.219-.029 1.205-.244 1.15-1.477 1.127-2.299-.031-.383-.031-.854.082-1.014.166-.244.578-.441.959-.602.52-.244 1.066-.465 1.342-.959.41-.686.166-2.359-.137-3.236-.221-.602-.465-.93-.793-1.066a2.955 2.955 0 0 0-.875-.137c-.441 0-.906.082-1.287.166-.305.055-.551.107-.74.107h-.107c-.221-.082-.357-.244-.549-.547-.191-.305-.439-.686-.93-.906-.547-.221-1.203-.494-1.781-.494h-.078c1.732-2.889 4.889-4.826 8.492-4.826 3.771 0 7.061 2.131 8.73 5.246l-.07.266c0 .029-.303 1.262-1.203 1.262h-.029c-.412-.029-1.398-1.096-1.865-1.615-.244-.244-.439-.465-.602-.631-.439-.41-1.287-1.203-2.164-1.203-.326 0-.629.107-.875.303-.715.52-.381 1.729-.053 2.877.137.465.273.99.273 1.264 0 .465-.357 1.012-.715 1.537-.518.768-1.15 1.727-.441 2.574a.815.815 0 0 0 .656.326c.328 0 .631-.219.93-.439.357-.273.77-.549 1.264-.549.328 0 .656.139 1.043.357.41.244.381.795.303 1.645-.084.738-.137 1.537.41 1.973a.896.896 0 0 0 .578.221c.381 0 .686-.246.959-.465.191-.166.383-.328.578-.383h.082c.244 0 .639.104.936.191-1.522 2.862-4.46 5.03-8.737 5.03z"/></svg>