<svg id="Capa_4" xmlns="http://www.w3.org/2000/svg" width="30" height="28" viewBox="0 0 30 28"><path fill="#11998C" d="M25.114 12.184c.059.369.09.744.09 1.127 0 2.85-1.563 5.488-4.201 7.111v1.791c0 .582-.422 1.055-.941 1.055h-1.748c-.518 0-.939-.473-.939-1.055v-.428c-1.402.252-2.766.23-4.107-.043v.42c0 .582-.424 1.057-.939 1.057h-1.748c-.52 0-.941-.475-.941-1.057v-1.916a9.265 9.265 0 0 1-2.143-1.955H5.462a1.425 1.425 0 0 1-1.422-1.422v-4.1c0-.783.639-1.422 1.422-1.422h.516A8.156 8.156 0 0 1 7.259 8.64L6.048 7.016l.369-.276c.721-.541 1.787-.545 2.766-.035.861-.645 1.85-1.15 2.904-1.496.662-.256 2.035-.477 3.408-.477s2.09.076 3.197.424c2.873.9 5.07 2.939 6.012 5.436a.97.97 0 0 1 .365-.074c.494 0 .891.375.891.834 0 .445-.373.81-.846.832zm-6.935-6.227c-.395-.09-1.791-.307-2.684-.307-.896 0-2.291.221-2.887.346a9.349 9.349 0 0 0-3.102 1.617l-.255.209-.277-.176c-.539-.343-1.129-.472-1.584-.365l1.023 1.367-.217.276a7.203 7.203 0 0 0-1.41 2.973l-.076.365H5.462a.504.504 0 0 0-.504.504v4.098c0 .279.227.506.504.506h2.486l.141.184a8.27 8.27 0 0 0 2.281 2.066l.277.172-.082.383v1.988c0 .086.035.137.049.141l1.719-.004c-.012-.004.023-.055.023-.137V20.57l.578.148a9.901 9.901 0 0 0 4.799.059l.563-.131v1.566c0 .086.037.131.051.141l1.701-.006c.018-.018.041-.063.041-.135l-.023-2.301.244-.145c2.49-1.439 3.977-3.854 3.977-6.457.003-3.34-2.497-6.327-6.108-7.352zm1.117 2.27a.463.463 0 0 1-.217-.055 7.648 7.648 0 0 0-3.615-.896 7.68 7.68 0 0 0-3.459.811.452.452 0 0 1-.615-.201.458.458 0 0 1 .201-.617 8.556 8.556 0 0 1 1.729-.645c2.133-.607 4.184-.049 4.162-.031a8.295 8.295 0 0 1 2.035.77.46.46 0 1 1-.221.864z"/></svg>