<svg id="Capa_4" xmlns="http://www.w3.org/2000/svg" width="30" height="28" viewBox="0 0 30 28"><g fill="#00557C"><path d="M8.312 16.135c-1.176 0-2.137.959-2.137 2.137s.961 2.137 2.137 2.137a2.138 2.138 0 0 0 0-4.274m0 5.127c-1.648 0-2.99-1.342-2.99-2.99s1.342-2.99 2.99-2.99 2.99 1.342 2.99 2.99-1.342 2.99-2.99 2.99" transform="translate(-1)"/><path d="M9.165 18.271a.854.854 0 1 1-1.709.001.854.854 0 0 1 1.709-.001M23.69 16.135c-1.176 0-2.135.959-2.135 2.137s.959 2.137 2.135 2.137c1.18 0 2.139-.959 2.139-2.137s-.959-2.137-2.139-2.137m0 5.127c-1.646 0-2.99-1.342-2.99-2.99s1.344-2.99 2.99-2.99c1.65 0 2.99 1.342 2.99 2.99s-1.339 2.99-2.99 2.99" transform="translate(-1)"/><path d="M24.546 18.271a.855.855 0 1 1-1.71 0 .855.855 0 0 1 1.71 0" transform="translate(-1)"/><path d="M26.651 17.844h.439c.48 0 .871-.391.871-.871v-3.607a.22.22 0 0 0-.219-.221H25.98a4.555 4.555 0 0 1-3.855-2.154l-1.477-2.396a2.11 2.11 0 0 0-1.793-1.004h-8.699c-.729 0-1.414.385-1.795 1.004l-2.125 3.459a2.308 2.308 0 0 1-1.953 1.092c-.082 0-.141.023-.184.068a.222.222 0 0 0-.063.156l.002 3.836a.64.64 0 0 0 .639.639h.674c.207-1.447 1.455-2.563 2.959-2.563s2.754 1.115 2.961 2.563h9.459c.207-1.447 1.455-2.563 2.959-2.563s2.753 1.114 2.962 2.562m.44.853h-1.262v-.426a2.14 2.14 0 0 0-2.139-2.137 2.138 2.138 0 0 0-2.135 2.137v.426H10.446v-.426a2.138 2.138 0 0 0-2.135-2.137 2.141 2.141 0 0 0-2.137 2.137v.426H4.679a1.495 1.495 0 0 1-1.494-1.492c0-1.133 0-2.893-.002-3.836a1.082 1.082 0 0 1 1.084-1.078c.514 0 .984-.262 1.242-.686l2.123-3.457a2.98 2.98 0 0 1 2.525-1.41h8.699c1.021 0 1.986.539 2.523 1.406l1.475 2.396a3.694 3.694 0 0 0 3.127 1.75h1.762c.592 0 1.074.482 1.074 1.074v3.607c0 .953-.775 1.726-1.726 1.726" transform="translate(-1)"/><path d="M10.019 11.01h12.119c-.002-.008-.008-.014-.012-.02l-1.039-1.691H10.019v1.711zm13.992.851H9.946a.78.78 0 0 1-.781-.779V9.225c0-.43.352-.779.781-.779h11.617l1.291 2.096c.121.201.277.395.471.602l.686.717z" transform="translate(-1)"/><path d="M15.575 11.438h.854V8.873h-.854v2.565z" transform="translate(-1)"/></g></svg>