<svg id="Capa_4" xmlns="http://www.w3.org/2000/svg" width="30" height="28" viewBox="0 0 30 28"><g fill="#5151B7"><path d="M25.594 12.858l-10.356-8.05a.386.386 0 0 0-.479 0l-10.351 8.05a.39.39 0 1 0 .479.617l2.023-1.57v10.979a.39.39 0 0 0 .389.393H22.701a.39.39 0 0 0 .389-.393V11.905l2.023 1.57a.39.39 0 0 0 .549-.068.393.393 0 0 0-.068-.549zm-8.615 9.635h-3.957v-4.348a1.98 1.98 0 0 1 3.958 0v4.348zm5.33 0H17.76v-4.348c0-1.521-1.238-2.76-2.76-2.76s-2.76 1.238-2.76 2.76v4.348H7.691V11.296L15 5.61l7.309 5.686v11.197z"/><path d="M13.425 11.038c0 .869.705 1.576 1.574 1.576a1.58 1.58 0 0 0 1.576-1.576 1.58 1.58 0 0 0-1.576-1.576c-.869 0-1.574.709-1.574 1.576zm2.369 0a.794.794 0 1 1 0 0z"/></g></svg>