<svg id="Capa_4" xmlns="http://www.w3.org/2000/svg" width="30" height="28" viewBox="0 0 30 28"><g fill="#94408C"><path d="M14.999 24.455C9.235 24.455 4.546 19.764 4.546 14S9.235 3.545 14.999 3.545c5.766 0 10.455 4.691 10.455 10.455s-4.689 10.455-10.455 10.455zm0-20.039c-5.283 0-9.582 4.299-9.582 9.584s4.299 9.584 9.582 9.584c5.285 0 9.584-4.299 9.584-9.584s-4.299-9.584-9.584-9.584z"/><path d="M14.999 24.455c-3.467 0-6.285-4.691-6.285-10.455s2.818-10.455 6.285-10.455c3.469 0 6.287 4.691 6.287 10.455s-2.818 10.455-6.287 10.455zm0-20.039c-2.984 0-5.414 4.299-5.414 9.584s2.43 9.584 5.414 9.584c2.986 0 5.416-4.299 5.416-9.584s-2.43-9.584-5.416-9.584z"/><path d="M15 24.455a.436.436 0 0 1-.436-.436V3.98a.436.436 0 0 1 .872 0v20.04c0 .24-.194.435-.436.435z"/><path d="M25.019 14.436H4.981a.436.436 0 0 1 0-.872h20.037a.435.435 0 1 1 .001.872zM23.543 9.58H6.453a.435.435 0 0 1-.434-.436c0-.242.193-.436.434-.436h17.09a.436.436 0 1 1 0 .872zM23.543 19.291H6.453a.433.433 0 0 1-.434-.436c0-.24.193-.436.434-.436h17.09a.437.437 0 1 1 0 .872z"/></g></svg>