<svg id="Capa_4" xmlns="http://www.w3.org/2000/svg" width="30" height="28" viewBox="0 0 30 28"><path fill="#50D3C7" d="M25.358 24.198H4.64a.554.554 0 0 1 0-1.11h20.719a.554.554 0 1 1-.001 1.11zM23.471 21.921H6.529a.556.556 0 0 1 0-1.112h16.945a.556.556 0 0 1-.003 1.112zM23.373 8.548H6.629a.555.555 0 0 1-.223-1.066l8.369-3.633a.543.543 0 0 1 .443 0l8.328 3.617a.555.555 0 0 1-.173 1.082zM9.299 7.438h11.398l-5.699-2.477-5.699 2.477zM7.989 19.751a.555.555 0 0 1-.555-.553V9.925a.556.556 0 0 1 1.112 0v9.273c0 .305-.25.553-.557.553zM10.794 19.751a.556.556 0 0 1-.557-.553V9.925a.556.556 0 0 1 1.114 0v9.273c0 .305-.25.553-.557.553zM13.599 19.751a.554.554 0 0 1-.555-.553V9.925a.554.554 0 1 1 1.11 0v9.273a.558.558 0 0 1-.555.553zM16.403 19.751a.556.556 0 0 1-.557-.553V9.925a.556.556 0 0 1 1.11 0v9.273a.554.554 0 0 1-.553.553zM19.206 19.751a.554.554 0 0 1-.555-.553V9.925a.554.554 0 1 1 1.11 0v9.273a.554.554 0 0 1-.555.553zM22.009 19.751a.555.555 0 0 1-.553-.553V9.925a.555.555 0 0 1 1.11 0v9.273a.556.556 0 0 1-.557.553z"/></svg>