<svg id="Capa_4" xmlns="http://www.w3.org/2000/svg" width="30" height="28" viewBox="0 0 30 28"><path fill="#ED5F5F" d="M25.239 9.919c-.266 0-.508.064-.727.16a1.82 1.82 0 0 0-1.426-.693c-.299 0-.576.08-.811.197l-.766.451a1.812 1.812 0 0 0-1.387-.648c-.299 0-.574.08-.813.197l-2.75 1.676c-.67-.197-3.568-1.014-4.127-1.154a17.231 17.231 0 0 0-.725-.17c-.102-.021-.189-.035-.268-.049a1.482 1.482 0 0 0-.223-.021c-.059 0-.109.006-.166.012-.207.029-.506.094-.855.174a71.83 71.83 0 0 0-2.133.547v-.749c0-.59-.484-1.07-1.076-1.07h-2.96c-.592 0-1.078.48-1.078 1.07v8.303c0 .588.486 1.07 1.078 1.07h2.961c.594 0 1.078-.482 1.078-1.07v-.646c.641.139 2.057.443 3.555.752 1.012.205 2.057.41 2.92.566.432.078.82.145 1.135.189.32.047.559.074.738.074.141 0 .273-.025.42-.066.27-.072.574-.203.924-.371 1.217-.59 2.967-1.697 4.617-2.791 1.645-1.092 3.186-2.172 3.939-2.689.473-.324.738-.871.738-1.449a1.806 1.806 0 0 0-1.812-1.802zm-17.98 8.232a.273.273 0 0 1-.271.268H4.026a.273.273 0 0 1-.271-.268V9.849c0-.145.123-.268.271-.268h2.961c.148 0 .271.123.271.268v8.302zm18.597-5.642c-.928.635-3.004 2.094-5.016 3.393-1.002.648-1.99 1.256-2.803 1.697-.402.221-.764.398-1.053.518a2.93 2.93 0 0 1-.369.131.767.767 0 0 1-.203.037 5.392 5.392 0 0 1-.619-.066c-1.063-.154-3.049-.549-4.76-.902a462.36 462.36 0 0 1-2.219-.469l-.75-.162v-5.254a80.709 80.709 0 0 1 1.965-.514c.291-.07.566-.137.783-.18a4.09 4.09 0 0 1 .279-.051.728.728 0 0 1 .127-.018s.043.002.102.012c.223.033.68.139 1.236.283 1.676.436 4.322 1.225 5.391 1.547.371.111.705.279.924.482.111.1.195.207.25.326a.874.874 0 0 1 .088.398c0 .316-.127.598-.336.803a1.136 1.136 0 0 1-.799.336l-1.043-.104-3.555-.452a.406.406 0 0 0-.453.348.403.403 0 0 0 .35.449l3.57.455 1.104.107h.02a1.949 1.949 0 0 0 1.953-1.941c0-.268-.061-.521-.166-.744a2.015 2.015 0 0 0-.711-.791 3.447 3.447 0 0 0-.957-.439l-.584-.176 2.082-1.268a.994.994 0 0 1 .441-.109c.262-.002.496.1.676.262l-1.084.639a.403.403 0 1 0 .412.692l2.514-1.482a1.01 1.01 0 0 1 .445-.109.994.994 0 0 1 .711.297l-2.93 1.727a.4.4 0 0 0-.139.551.407.407 0 0 0 .555.141l3.514-2.074c.143-.066.289-.107.441-.109.279.002.527.113.711.293.182.182.293.43.293.705a.94.94 0 0 1-.388.785z"/></svg>