<svg id="Capa_4" xmlns="http://www.w3.org/2000/svg" width="30" height="28" viewBox="0 0 30 28"><path fill="#AF1515" d="M27.769 6.85H4.636a.336.336 0 0 0-.336.338v.844h-.846a.336.336 0 0 0-.338.338v.88h-.883a.338.338 0 0 0-.338.338v11.225c0 .188.152.338.338.338h23.133a.338.338 0 0 0 .338-.338v-.881h.879c.189 0 .34-.152.34-.338v-.844h.844a.338.338 0 0 0 .338-.34V7.188a.337.337 0 0 0-.336-.338zm-2.741 13.627H2.571V9.926h22.457v10.551zm1.219-1.221h-.543V9.59a.34.34 0 0 0-.338-.34H3.792v-.543h22.455v10.549zm1.184-1.182h-.508V8.369a.336.336 0 0 0-.338-.338H4.974v-.506h22.457v10.549z"/><path fill="#AF1515" d="M14.701 18.404c-1.426-.109-1.684-.875-1.684-1.758v-.18h1.186c0 .473.041.92.498 1.027v-1.73l-.43-.156c-.832-.299-1.176-.875-1.176-1.646 0-1.047.594-1.639 1.605-1.752v-.59h.547v.59c1.264.105 1.59.861 1.59 1.623v.117h-1.186c-.01-.436-.111-.734-.404-.83v1.621l.68.275c.635.268 1.055.602 1.055 1.553 0 1.234-.602 1.76-1.734 1.836v.748h-.547v-.748zm0-5.283c-.26.076-.424.293-.424.65 0 .311.131.553.424.723v-1.373zm.547 4.373c.354-.076.5-.367.5-.684 0-.428-.174-.662-.5-.834v1.518z"/></svg>