<svg id="Capa_4" xmlns="http://www.w3.org/2000/svg" width="30" height="28" viewBox="0 0 30 28"><g fill="none" stroke="#DD8EDA" stroke-width=".75" stroke-miterlimit="10"><path d="M5.643 13.988v2.16M10.969 13.988v2.16M5.643 15.814v2.159M10.969 15.814v2.159M5.643 17.641v2.158M10.969 17.641v2.158"/><ellipse cx="8.305" cy="13.989" rx="2.664" ry="1.493"/><path d="M10.969 15.814c0 .824-1.191 1.492-2.664 1.492-1.471 0-2.662-.668-2.662-1.492M10.969 17.641c0 .824-1.191 1.492-2.664 1.492-1.471 0-2.662-.668-2.662-1.492M10.969 19.467c0 .824-1.191 1.494-2.664 1.494-1.471 0-2.662-.67-2.662-1.494M10.969 21.293c0 .824-1.191 1.492-2.664 1.492-1.471 0-2.662-.668-2.662-1.492M5.643 19.467v2.158M10.969 19.467v2.158"/><g><path d="M12.336 10.338v2.158M17.662 10.338v2.158M12.336 12.164v2.158M17.662 12.164v2.158M12.336 13.988v2.16M17.662 13.988v2.16M12.336 15.814v2.159M17.662 15.814v2.159M12.336 17.641v2.158M17.662 17.641v2.158"/><ellipse cx="15" cy="10.337" rx="2.662" ry="1.493"/><path d="M17.662 12.164c0 .824-1.191 1.492-2.662 1.492-1.473 0-2.664-.668-2.664-1.492M17.662 13.988c0 .826-1.191 1.494-2.662 1.494-1.473 0-2.664-.668-2.664-1.494M17.662 15.814c0 .824-1.191 1.492-2.662 1.492-1.473 0-2.664-.668-2.664-1.492M17.662 17.641c0 .824-1.191 1.492-2.662 1.492-1.473 0-2.664-.668-2.664-1.492M17.662 19.467c0 .824-1.191 1.494-2.662 1.494-1.473 0-2.664-.67-2.664-1.494M17.662 21.293c0 .824-1.191 1.492-2.662 1.492-1.473 0-2.664-.668-2.664-1.492M12.336 19.467v2.158M17.662 19.467v2.158"/></g><g><path d="M19.031 6.709v2.158M19.031 8.535v2.158M19.031 10.361v2.159M19.031 12.188v2.158M19.031 14.012v2.16M19.031 15.838v2.158M19.031 17.365v2.158M19.031 19.162v2.158"/><ellipse cx="21.695" cy="6.709" rx="2.662" ry="1.494"/><path d="M24.357 8.535c0 .824-1.191 1.492-2.662 1.492-1.473 0-2.664-.668-2.664-1.492M24.357 6.709v2.158M24.357 10.361c0 .824-1.191 1.492-2.662 1.492-1.473 0-2.664-.668-2.664-1.492M24.357 8.535v2.158M24.357 12.188c0 .822-1.191 1.492-2.662 1.492-1.473 0-2.664-.67-2.664-1.492M24.357 10.361v2.159M24.357 14.012c0 .824-1.191 1.494-2.662 1.494-1.473 0-2.664-.67-2.664-1.494M24.357 12.188v2.158M24.357 15.838c0 .824-1.191 1.492-2.662 1.492-1.473 0-2.664-.668-2.664-1.492M24.357 14.012v2.16M24.357 17.664c0 .824-1.191 1.492-2.662 1.492-1.473 0-2.664-.668-2.664-1.492M24.357 15.838v2.158M24.357 19.496c0 .822-1.191 1.492-2.662 1.492-1.473 0-2.664-.67-2.664-1.492M24.357 17.365v2.158M24.357 21.293c0 .824-1.191 1.492-2.662 1.492-1.473 0-2.664-.668-2.664-1.492M24.357 19.162v2.158"/></g></g></svg>